<svg xmlns="http://www.w3.org/2000/svg" fill="none" viewBox="0 0 24 24" style="width: 24px;">
    <path fill="#D42322" d="M12 22c5.523 0 10-4.477 10-10S17.523 2 12 2 2 6.477 2 12s4.477 10 10 10z"></path>
    <path fill="#fff" d="M10.947 14.399c.308-.395 1.02-.144.999.366 0 .12.005 3.025-.043 3.159-.06.155-.18.252-.366.29-.258.045-.694-.049-1.306-.278-.563-.21-1.45-.559-1.261-1.105.071-.178 1.315-1.632 1.977-2.432zm2.123.096c-.28-.42.174-1.035.655-.863 0 0 2.828.928 2.935 1.024.134.106.184.254.157.444-.07.536-1.14 1.908-1.633 2.105-.177.068-.33.053-.454-.051-.127-.091-1.581-2.524-1.66-2.66zm-5.416-3.296c.122 0 1.717.673 2.884 1.154.438.176.476.93-.038 1.088-.026.009-2.795.928-2.964.929-.388-.023-.473-.42-.509-.81a6.065 6.065 0 01.008-1.217c.048-.489.14-1.173.619-1.144zm7.157-2.137c.133-.093.29-.098.468-.015.47.228 1.41 1.64 1.47 2.199-.003.075.03.304-.19.457-.144.096-2.837.733-3.023.796l.008-.016c-.463.122-.905-.48-.596-.9.094-.095 1.686-2.401 1.863-2.52zM8.188 6.034c.4-.429 2.544-1.035 3.11-.886.192.049.31.158.353.327.033.217.294 4.352.33 5.006l.003.094c-.001.915-.673 1.138-1.21.278L8.052 6.486a.467.467 0 01.135-.452z"></path>
</svg>