<svg xmlns="http://www.w3.org/2000/svg" xmlns:xlink="http://www.w3.org/1999/xlink" version="1.1" width="1000" height="1000" viewBox="0 0 1000 1000" xml:space="preserve">
<desc>Created with Fabric.js 3.5.0</desc>
<defs>
</defs>
<rect x="0" y="0" width="100%" height="100%" fill="#ffffff"/>
<g transform="matrix(46.7304 0 0 46.7304 500 500)" id="433834">
<path style="stroke: none; stroke-width: 1; stroke-dasharray: none; stroke-linecap: butt; stroke-dashoffset: 0; stroke-linejoin: miter; stroke-miterlimit: 4; is-custom-font: none; font-file-url: none; fill: rgb(168,168,168); fill-rule: nonzero; opacity: 1;" vector-effect="non-scaling-stroke" transform=" translate(-11.9993, -11.9995)" d="M 9.362 9.158 c 0 0 -3.16 0.35 -5.268 0.584 c -0.19 0.023 -0.358 0.15 -0.421 0.343 s 0 0.394 0.14 0.521 c 1.566 1.429 3.919 3.569 3.919 3.569 c -0.002 0 -0.646 3.113 -1.074 5.19 c -0.036 0.188 0.032 0.387 0.196 0.506 c 0.163 0.119 0.373 0.121 0.538 0.028 c 1.844 -1.048 4.606 -2.624 4.606 -2.624 s 2.763 1.576 4.604 2.625 c 0.168 0.092 0.378 0.09 0.541 -0.029 c 0.164 -0.119 0.232 -0.318 0.195 -0.505 c -0.428 -2.078 -1.071 -5.191 -1.071 -5.191 s 2.353 -2.14 3.919 -3.566 c 0.14 -0.131 0.202 -0.332 0.14 -0.524 s -0.23 -0.319 -0.42 -0.341 c -2.108 -0.236 -5.269 -0.586 -5.269 -0.586 s -1.31 -2.898 -2.183 -4.83 c -0.082 -0.173 -0.254 -0.294 -0.456 -0.294 s -0.375 0.122 -0.453 0.294 C 10.671 6.26 9.362 9.158 9.362 9.158 z" stroke-linecap="round"/>
</g>
</svg>