<svg xmlns="http://www.w3.org/2000/svg" viewBox="0 0 14 14">
    <path fill="#FFF" d="M6.826 10.743l-3.28 1.724a.5.5 0 0 1-.725-.528l.627-3.65a.5.5 0 0 0-.144-.443L.65 5.26a.5.5 0 0 1 .277-.853l3.666-.533a.5.5 0 0 0 .377-.273L6.61.279a.5.5 0 0 1 .896 0L9.147 3.6a.5.5 0 0 0 .376.273l3.666.533a.5.5 0 0 1 .277.853l-2.653 2.586a.5.5 0 0 0-.144.442l.627 3.651a.5.5 0 0 1-.726.528l-3.279-1.724a.5.5 0 0 0-.465 0z"></path>
    <path fill="orange" clip-path="url(#left-half)" d="M6.826 10.743l-3.28 1.724a.5.5 0 0 1-.725-.528l.627-3.65a.5.5 0 0 0-.144-.443L.65 5.26a.5.5 0 0 1 .277-.853l3.666-.533a.5.5 0 0 0 .377-.273L6.61.279a.5.5 0 0 1 .896 0L9.147 3.6a.5.5 0 0 0 .376.273l3.666.533a.5.5 0 0 1 .277.853l-2.653 2.586a.5.5 0 0 0-.144.442l.627 3.651a.5.5 0 0 1-.726.528l-3.279-1.724a.5.5 0 0 0-.465 0z"></path>
    <defs>
        <clipPath id="left-half">
        <rect x="0" y="0" width="7" height="14"/>
        </clipPath>
        <clipPath id="right-half">
        <rect x="7" y="0" width="7" height="14"/>
        </clipPath>
    </defs>
</svg>